Coordinates
version=1
nRows=19
nColumns=24
inDegrees=yes

Units are S.I. units (second, meters, Newtons, ...)
Angles are in degrees.

endheader
time	pelvis_tilt	pelvis_list	pelvis_rotation	pelvis_tx	pelvis_ty	pelvis_tz	hip_flexion_r	hip_adduction_r	hip_rotation_r	knee_angle_r	ankle_angle_r	subtalar_angle_r	mtp_angle_r	hip_flexion_l	hip_adduction_l	hip_rotation_l	knee_angle_l	ankle_angle_l	subtalar_angle_l	mtp_angle_l	lumbar_extension	lumbar_bending	lumbar_rotation
      0.68316667	      0.59416061	     -2.63000594	      2.43471970	     -0.47079496	      0.99095115	      0.30762786	     11.07697014	      7.26538304	     -1.54803822	    -18.50085261	      7.87338591	     -8.66413132	      0.64229171	     21.73413610	     -2.30658994	     -0.47118775	    -72.97162446	     -3.76742753	     -8.89919381	     -0.12783285	     -1.74550261	      5.98743046	      2.27247167
      0.68733333	      0.62295100	     -2.52089644	      2.36551985	     -0.46549379	      0.99190823	      0.30773519	     10.47801022	      7.16678909	     -1.52284892	    -18.08221531	      7.94182632	     -8.51582635	      0.64314676	     22.30115399	     -2.14110833	     -0.47129697	    -72.67604555	     -3.17973362	     -9.24934077	     -0.19096611	     -1.80187444	      5.86199406	      2.36342508
      0.69150000	      0.71491175	     -2.41019550	      2.29880498	     -0.46014509	      0.99296640	      0.30781732	      9.78229803	      7.06683893	     -1.49028718	    -17.60482966	      7.98664706	     -8.29824492	      0.64396286	     22.76262509	     -1.97452914	     -0.46736560	    -72.28486683	     -2.65685747	     -9.55994604	     -0.30378826	     -1.93035270	      5.75865106	      2.52848037
      0.69566667	      0.76058241	     -2.30522333	      2.21112577	     -0.45482827	      0.99388200	      0.30793494	      9.15826221	      6.97316269	     -1.44219405	    -17.16703814	      8.04262643	     -8.11633851	      0.64581419	     23.26190194	     -1.82690285	     -0.48793212	    -71.84882592	     -2.10411861	     -9.84424105	     -0.42056540	     -2.00791358	      5.64951681	      2.67581663
      0.69983333	      0.79500403	     -2.18878083	      2.11078711	     -0.44951982	      0.99474463	      0.30805553	      8.55307947	      6.86568307	     -1.38014779	    -16.74243458	      8.10401069	     -7.94213603	      0.64854496	     23.74830854	     -1.67105851	     -0.52383242	    -71.34367706	     -1.56657918	    -10.11685137	     -0.54489819	     -2.07787027	      5.52624766	      2.83070167
      0.70400000	      0.83697827	     -2.08676868	      2.00237965	     -0.44420102	      0.99557971	      0.30818774	      7.93519782	      6.77511749	     -1.30003861	    -16.30615495	      8.15830008	     -7.78845909	      0.65118053	     24.20464928	     -1.54074205	     -0.56871107	    -70.77846386	     -1.03015061	    -10.34554436	     -0.66547278	     -2.15319501	      5.41917124	      2.98364206
      0.70816667	      0.88044542	     -1.97102724	      1.87924236	     -0.43888298	      0.99635433	      0.30832546	      7.32639978	      6.66635247	     -1.21953315	    -15.89181321	      8.22135506	     -7.62269847	      0.65488561	     24.63362282	     -1.40499770	     -0.63708011	    -70.14861905	     -0.50908584	    -10.55851734	     -0.79181599	     -2.22649195	      5.30087773	      3.15190152
      0.71233333	      0.85761351	     -1.86671367	      1.74493801	     -0.43361631	      0.99697260	      0.30847256	      6.80814366	      6.56920461	     -1.10939897	    -15.50837966	      8.29373441	     -7.50165679	      0.65796761	     25.12528003	     -1.28159675	     -0.70415004	    -69.47688193	      0.02050104	    -10.76610318	     -0.84168508	     -2.24226057	      5.18452642	      3.24157978
      0.71650000	      0.91864941	     -1.76160563	      1.60711669	     -0.42827433	      0.99767911	      0.30862445	      6.17530071	      6.46858911	     -1.02140365	    -15.07921762	      8.34754152	     -7.32482020	      0.66224135	     25.48605834	     -1.17627769	     -0.79358648	    -68.72234360	      0.48958080	    -10.90342089	     -0.97356965	     -2.33027707	      5.07578074	      3.49418143
      0.72066667	      0.92105792	     -1.65528348	      1.44431219	     -0.42297248	      0.99824254	      0.30878466	      5.63487820	      6.36385543	     -0.90068552	    -14.70692221	      8.40883705	     -7.19230110	      0.66623159	     25.89198242	     -1.07415756	     -0.90047113	    -67.91862085	      0.98183742	    -11.05726567	     -1.05396593	     -2.35839228	      4.97434382	      3.62278207
      0.72483333	      0.94572040	     -1.55417920	      1.28788453	     -0.41767170	      0.99877731	      0.30894254	      5.06402514	      6.26367187	     -0.78299451	    -14.31574099	      8.47186793	     -7.04447861	      0.67098233	     26.25437521	     -0.98091867	     -1.00384042	    -67.05906347	      1.43578691	    -11.17112727	     -1.14386518	     -2.41510016	      4.87077037	      3.80135221
      0.72900000	      0.92297321	     -1.47426297	      1.13359789	     -0.41239257	      0.99916394	      0.30909299	      4.55571926	      6.18223102	     -0.66778192	    -13.94086931	      8.54213607	     -6.90832130	      0.67634796	     26.65848932	     -0.90853303	     -1.09304581	    -66.16346822	      1.86099374	    -11.26088011	     -1.23057735	     -2.42078814	      4.78854684	      3.97161750
      0.73316667	      0.96149724	     -1.38324725	      0.98644369	     -0.40708146	      0.99959491	      0.30924370	      3.97128291	      6.08578268	     -0.57999442	    -13.54676084	      8.62142777	     -6.74991485	      0.68418050	     26.96569894	     -0.83210502	     -1.19123999	    -65.19955808	      2.23687170	    -11.32228847	     -1.37105391	     -2.49052834	      4.68185038	      4.21268187
      0.73733333	      0.94481929	     -1.31036170	      0.82603715	     -0.40178644	      0.99988952	      0.30939526	      3.46187046	      6.00690633	     -0.46217616	    -13.18043073	      8.69147394	     -6.60791595	      0.69387337	     27.31431047	     -0.77538627	     -1.28605377	    -64.19006432	      2.60341847	    -11.37049790	     -1.53965735	     -2.50074348	      4.61149859	      4.41951615
      0.74150000	      0.93964705	     -1.23954186	      0.66903758	     -0.39650855	      1.00013974	      0.30953112	      2.94600341	      5.92682798	     -0.35609381	    -12.82206184	      8.77049362	     -6.47556004	      0.70447299	     27.63075161	     -0.72122188	     -1.37973417	    -63.12979533	      2.93703043	    -11.41225678	     -1.70867851	     -2.52324708	      4.54031471	      4.59306609
      0.74566667	      0.91235516	     -1.17271770	      0.50376265	     -0.39123390	      1.00029473	      0.30968710	      2.46493216	      5.84930030	     -0.24399326	    -12.48356012	      8.84938834	     -6.34199337	      0.71527488	     27.95053244	     -0.67913817	     -1.48165499	    -62.02279313	      3.24308677	    -11.43697751	     -1.85186872	     -2.51851054	      4.47204683	      4.74530315
      0.74983333	      0.88529922	     -1.12042758	      0.34316719	     -0.38598109	      1.00039133	      0.30981633	      1.98916011	      5.78553415	     -0.11954781	    -12.15317570	      8.92737839	     -6.21532431	      0.72433408	     28.25056412	     -0.64376231	     -1.56142081	    -60.86884088	      3.52499900	    -11.44140727	     -1.95778461	     -2.52046686	      4.42975379	      4.87247088
      0.75400000	      0.87481929	     -1.07142570	      0.20418013	     -0.38068661	      1.00046850	      0.30994326	      1.48209388	      5.72278767	     -0.04059092	    -11.79547431	      9.01439431	     -6.08834320	      0.73579508	     28.51004805	     -0.61507350	     -1.63979883	    -59.66507034	      3.75266852	    -11.43068015	     -2.10275755	     -2.53295173	      4.37727797	      5.05927352
      0.75816667	      0.86908142	     -1.03663865	      0.07152393	     -0.37542119	      1.00049123	      0.31004557	      0.97826607	      5.67417424	      0.04588855	    -11.45247560	      9.09981582	     -5.96125561	      0.75084377	     28.74598820	     -0.59015085	     -1.68981316	    -58.41767965	      3.95957830	    -11.39770613	     -2.29378953	     -2.56021456	      4.35014562	      5.24189059
